# xmcd CD database file
#
# Track frame offsets:
#	183
#	9633
#	32283
#	54858
#	69458
#	78783
#	93633
#	115833
#	129608
#	141295
#	157833
#	172983
#	187158
#	197733
#	219183
#
# Disc length: 3219 seconds
#
# Revision: 0
# Processed by: cddbd v1.4PL0 Copyright (c) Steve Scherf et al.
# Submitted via: Feurio! 1.65 - http://www.feurio.com
#
DISCID=bf0c910f
DTITLE=Dave Kelly - Willing
DYEAR=1979
DGENRE=Blues
TTITLE0=Don't Sell It Away
TTITLE1=Two Trains Running
TTITLE2=Mean Old Frisco
TTITLE3=Me And The Devil
TTITLE4=San Francisco Bay Blues
TTITLE5=Black Rat Swing
TTITLE6=Willing
TTITLE7=Put Another Log On The Fire
TTITLE8=Steel Guitar Rag
TTITLE9=Tonight I'll Staying Here With You
TTITLE10=Sunny Afternoon
TTITLE11=Peggy Sue Got Married
TTITLE12=When Will I Be Loved
TTITLE13=Can't It Be Enough For You
TTITLE14=It Isn't Love
EXTD=ARD Appaloosa 003-2 1979
EXTT0=
EXTT1=
EXTT2=
EXTT3=
EXTT4=
EXTT5=
EXTT6=
EXTT7=
EXTT8=
EXTT9=
EXTT10=
EXTT11=
EXTT12=
EXTT13=
EXTT14=
PLAYORDER=
